<svg width="520" height="280" viewBox="0 0 520 280" fill="none" xmlns="http://www.w3.org/2000/svg">
  <rect width="520" height="280" rx="24" fill="#F0FDFA"/>
  <path d="M30 216C124 176 206 225 290 193C358 168 425 157 492 186V248H30V216Z" fill="#99F6E4"/>
  <path d="M100 188L126 125H378C393 125 407 135 413 149L426 188H100Z" fill="#F8FAFC"/>
  <rect x="80" y="188" width="362" height="45" rx="12" fill="#E2E8F0"/>
  <rect x="156" y="138" width="66" height="30" rx="7" fill="#2DD4BF"/>
  <rect x="230" y="138" width="66" height="30" rx="7" fill="#5EEAD4"/>
  <rect x="304" y="138" width="66" height="30" rx="7" fill="#99F6E4"/>
  <circle cx="157" cy="212" r="24" fill="#0F172A"/>
  <circle cx="366" cy="212" r="24" fill="#0F172A"/>
  <circle cx="157" cy="212" r="10" fill="#CBD5E1"/>
  <circle cx="366" cy="212" r="10" fill="#CBD5E1"/>
</svg>
